<?xml version="1.0" standalone="no"?>
<!DOCTYPE svg PUBLIC "-//W3C//DTD SVG 20010904//EN"
 "http://www.w3.org/TR/2001/REC-SVG-20010904/DTD/svg10.dtd">
<svg version="1.0" xmlns="http://www.w3.org/2000/svg"
 width="840.000000pt" height="840.000000pt" viewBox="0 0 840.000000 840.000000"
 preserveAspectRatio="xMidYMid meet">
<metadata>
Created by potrace 1.11, written by Peter Selinger 2001-2013
</metadata>
<g transform="translate(0.000000,840.000000) scale(0.100000,-0.100000)"
fill="#000000" stroke="none">
<path d="M2260 7386 c-34 -12 -132 -68 -890 -506 -206 -119 -487 -281 -625
-360 -470 -269 -478 -275 -521 -365 -28 -58 -32 -141 -10 -202 13 -36 67 -132
261 -468 70 -120 136 -235 237 -410 155 -270 190 -325 225 -354 55 -45 122
-64 203 -59 75 6 75 6 345 163 266 155 616 355 621 355 2 0 5 -915 6 -2034 l3
-2035 41 -58 c32 -45 55 -65 103 -91 l63 -32 1871 0 1872 0 50 24 c64 29 112
77 141 141 l24 50 0 2018 c0 1462 3 2017 11 2017 6 0 68 -33 138 -74 69 -41
227 -132 351 -203 124 -71 268 -154 320 -184 94 -54 95 -54 180 -54 102 0 163
26 215 90 18 22 137 222 265 445 129 223 276 477 327 565 51 88 98 178 104
200 15 55 6 152 -19 200 -32 62 -86 107 -232 191 -74 42 -178 102 -230 132
-52 30 -212 123 -355 205 -143 82 -318 184 -390 225 -71 42 -186 108 -255 147
-69 39 -170 98 -225 130 -256 149 -306 176 -345 190 -36 13 -137 15 -641 15
l-598 0 -11 -40 c-13 -49 -42 -69 -150 -105 -333 -111 -952 -89 -1177 41 -33
19 -45 33 -53 64 l-11 40 -602 0 c-462 -1 -610 -4 -637 -14z m1147 -192 c112
-112 423 -184 793 -184 371 0 681 72 793 184 l37 37 527 -3 528 -3 270 -156
c369 -214 660 -382 1240 -717 388 -223 406 -234 422 -266 9 -17 13 -41 9 -57
-3 -15 -49 -104 -103 -196 -130 -226 -366 -634 -471 -817 -87 -152 -119 -186
-171 -186 -21 0 -101 44 -461 252 -52 30 -201 116 -330 190 -129 75 -266 154
-305 176 l-70 41 -5 -2157 c-4 -1727 -8 -2161 -18 -2179 -32 -56 86 -53 -1897
-53 -2007 0 -1867 -4 -1900 60 -13 26 -15 276 -15 2175 0 1180 -3 2145 -6
2145 -3 0 -89 -49 -192 -108 -103 -60 -268 -155 -367 -212 -99 -56 -200 -115
-225 -130 -168 -102 -350 -200 -371 -200 -52 0 -83 34 -171 186 -105 182 -341
591 -471 816 -53 91 -99 178 -103 192 -9 38 12 81 54 109 21 13 118 71 217
127 99 57 274 158 390 225 116 67 291 168 390 225 99 57 248 143 330 190 299
173 550 317 565 323 8 3 248 6 533 6 l518 1 36 -36z"/>
</g>
</svg>
